<svg id="Group_2" data-name="Group 2" xmlns="http://www.w3.org/2000/svg" width="50" height="50" viewBox="0 0 50 50">
  <path id="Path_1" data-name="Path 1" d="M12.8,50H27.577V45.07c0-1.987,1.176-3.6,2.625-3.6s2.626,1.611,2.626,3.6V50h1.137V45.07c0-1.987,1.176-3.6,2.624-3.6s2.626,1.611,2.626,3.6V50H53.991a4.273,4.273,0,0,0,4.4-4.127V44.705a7.341,7.341,0,0,0-3.922-6l-12.23-5.854V21.112A8.677,8.677,0,0,0,39.6,15.04L37.11,13.094a5.09,5.09,0,0,0-1.654-.839V8.389h1.6a1.788,1.788,0,0,0,1.6-1.931,1.787,1.787,0,0,0-1.6-1.93h-1.6V2.263a2.07,2.07,0,1,0-4.123,0V4.528h-1.6a1.786,1.786,0,0,0-1.6,1.93,1.787,1.787,0,0,0,1.6,1.931h1.6v4.1a4.9,4.9,0,0,0-1.017.578l-2.553,1.96c-1.412,1.082-2.555,3.807-2.555,6.087V32.531L12.317,38.7a7.344,7.344,0,0,0-3.922,6v1.168A4.275,4.275,0,0,0,12.8,50ZM36.366,34.2h-5.94V23.407c0-2.509,1.329-4.543,2.97-4.543s2.97,2.035,2.97,4.543Z" transform="translate(-8.395)" fill="#fff"/>
</svg>
